<svg xmlns="http://www.w3.org/2000/svg" width="21.956" height="12.612" viewBox="0 0 21.956 12.612">
  <g id="Light-S" transform="translate(-26.369 48.831)">
    <path id="Path_76" data-name="Path 76" d="M37.343-36.219a1.88,1.88,0,0,1-.711-.145,2.143,2.143,0,0,1-.7-.486l-9.1-9.1a1.5,1.5,0,0,1-.459-1.2,1.707,1.707,0,0,1,.49-1.149,1.569,1.569,0,0,1,1.191-.526,1.67,1.67,0,0,1,1.139.526l8.151,8.2,8.182-8.182a1.591,1.591,0,0,1,1.124-.51,1.612,1.612,0,0,1,1.175.542,1.6,1.6,0,0,1,.5,1.165,1.6,1.6,0,0,1-.5,1.165L38.752-36.85a2.181,2.181,0,0,1-.689.486A1.854,1.854,0,0,1,37.343-36.219Z" fill="#e7e7e7"/>
  </g>
</svg>
